<?xml version="1.0" standalone="no"?>
<!DOCTYPE svg PUBLIC "-//W3C//DTD SVG 20010904//EN"
 "https://www.w3.org/TR/2001/REC-SVG-20010904/DTD/svg10.dtd">
<svg version="1.0" xmlns="http://www.w3.org/2000/svg"
 width="900.000000pt" height="900.000000pt" viewBox="0 0 900.000000 900.000000"
 preserveAspectRatio="xMidYMid meet">
<g transform="translate(0.000000,900.000000) scale(0.100000,-0.100000)"
fill="#ffffff" stroke="none"> <!--black: #000000-->
<path d="M0 4500 l0 -4500 4500 0 4500 0 0 4500 0 4500 -4500 0 -4500 0 0
-4500z m3270 4330 c11 -7 9 -11 -12 -19 -14 -5 -29 -15 -33 -20 -3 -6 -18 -11
-33 -11 -31 0 -197 -53 -267 -86 -27 -13 -63 -26 -80 -30 -32 -7 -248 -105
-315 -143 -8 -5 -49 -25 -90 -46 -133 -66 -302 -164 -366 -212 -17 -13 -34
-23 -38 -23 -4 0 -34 -20 -66 -45 -32 -25 -61 -45 -65 -45 -6 0 -49 -33 -225
-171 -104 -81 -201 -170 -350 -319 -236 -235 -354 -377 -537 -645 -26 -38 -56
-86 -66 -105 -11 -19 -25 -42 -32 -50 -43 -50 -252 -447 -300 -570 -10 -25
-30 -72 -45 -105 -16 -33 -30 -69 -33 -80 -3 -11 -20 -58 -38 -105 -17 -47
-36 -103 -41 -125 -6 -22 -14 -48 -19 -57 -5 -10 -13 -34 -18 -55 -6 -21 -18
-60 -27 -87 -14 -40 -19 -46 -25 -30 -9 23 -12 3178 -2 3187 10 11 3106 8
3123 -3z m5565 -1564 c0 -1037 -3 -1570 -10 -1573 -11 -3 -35 42 -35 64 0 8
-9 42 -20 76 -11 34 -27 87 -37 117 -9 30 -29 83 -45 118 -15 35 -28 70 -28
79 0 8 -6 27 -14 41 -15 30 -71 151 -91 197 -42 98 -181 361 -209 395 -6 8
-22 36 -35 63 -12 26 -26 47 -29 47 -4 0 -16 17 -27 38 -29 54 -70 115 -150
220 -38 51 -80 107 -93 125 -12 17 -42 52 -65 78 -23 25 -68 77 -99 115 -64
78 -309 321 -408 404 -35 30 -82 71 -103 90 -21 19 -46 39 -55 44 -10 5 -51
37 -92 71 -73 59 -225 165 -236 165 -4 0 -23 13 -43 29 -20 15 -54 38 -76 50
-22 12 -53 30 -70 41 -16 11 -52 32 -80 47 -27 15 -63 36 -80 45 -33 18 -51
28 -105 52 -19 9 -42 20 -50 25 -8 5 -35 18 -60 29 -131 58 -167 75 -192 88
-14 8 -34 14 -43 14 -9 0 -29 6 -43 14 -37 19 -96 42 -162 62 -30 9 -70 23
-88 30 -18 8 -44 14 -57 14 -13 0 -26 4 -30 9 -3 5 -19 12 -35 16 -29 6 -37
15 -23 28 3 4 707 6 1562 5 l1556 -3 0 -1569z m-4456 1535 c11 -7 5 -24 -29
-87 -23 -44 -48 -86 -56 -95 -8 -8 -14 -23 -14 -32 0 -9 -4 -17 -9 -17 -5 0
-13 -10 -17 -22 -3 -12 -19 -39 -35 -61 -16 -22 -29 -46 -29 -53 0 -7 -13 -33
-30 -57 -16 -25 -30 -47 -30 -50 0 -4 -27 -51 -60 -105 -33 -55 -60 -103 -60
-107 0 -4 -13 -27 -30 -52 -16 -24 -30 -47 -30 -50 0 -3 -15 -31 -34 -62 -19
-31 -45 -76 -59 -101 -51 -96 -62 -115 -74 -128 -7 -7 -13 -18 -13 -24 0 -5
-13 -30 -30 -55 -16 -24 -30 -46 -30 -48 0 -4 -64 -116 -91 -160 -10 -16 -24
-41 -30 -55 -6 -14 -20 -38 -32 -55 -12 -16 -40 -64 -61 -105 -20 -41 -53
-100 -71 -130 -18 -30 -44 -75 -58 -100 -13 -25 -34 -61 -45 -80 -27 -45 -115
-200 -125 -220 -4 -8 -16 -28 -26 -45 -11 -16 -30 -50 -42 -75 -12 -25 -34
-63 -48 -85 -38 -59 -48 -77 -65 -110 -8 -16 -29 -52 -45 -80 -17 -27 -34 -57
-38 -65 -6 -13 -103 -179 -133 -230 -6 -8 -21 -38 -35 -66 -14 -29 -36 -67
-48 -85 -13 -19 -26 -41 -30 -49 -4 -8 -21 -37 -38 -65 -16 -27 -37 -63 -45
-80 -8 -16 -23 -43 -33 -60 -46 -76 -134 -230 -144 -254 -6 -14 -21 -40 -33
-56 -13 -17 -27 -41 -33 -55 -6 -14 -21 -41 -32 -60 -40 -65 -79 -135 -90
-160 -6 -14 -21 -39 -35 -57 -13 -17 -24 -38 -24 -46 0 -8 -7 -20 -15 -27 -8
-7 -15 -17 -15 -22 0 -5 -12 -28 -27 -51 -16 -23 -37 -60 -48 -82 -11 -22 -32
-58 -47 -79 -16 -21 -28 -44 -28 -51 0 -7 -12 -30 -28 -51 -15 -22 -36 -55
-47 -74 -48 -86 -65 -118 -87 -160 -12 -25 -32 -58 -44 -75 -12 -16 -42 -68
-68 -115 -51 -94 -86 -157 -117 -210 -12 -19 -32 -55 -46 -80 -13 -25 -28 -52
-33 -60 -28 -44 -128 -217 -133 -230 -4 -8 -17 -31 -28 -50 -12 -19 -32 -55
-46 -80 -13 -25 -33 -58 -44 -75 -10 -16 -23 -39 -29 -50 -6 -11 -24 -42 -41
-70 -16 -27 -37 -63 -45 -80 -8 -16 -21 -39 -27 -50 -7 -11 -30 -51 -52 -90
-22 -38 -44 -77 -50 -87 -5 -9 -21 -38 -35 -65 -14 -26 -37 -66 -52 -87 -16
-21 -28 -43 -28 -49 0 -5 -20 -42 -45 -81 -25 -40 -45 -75 -45 -79 0 -3 -16
-33 -35 -66 -55 -94 -61 -90 -155 106 -45 93 -87 179 -94 193 -7 14 -23 53
-35 88 -12 34 -25 70 -30 80 -23 47 -40 92 -56 147 -10 33 -23 76 -30 95 -23
61 -64 203 -79 270 -8 36 -21 94 -30 130 -9 36 -21 97 -26 135 -5 39 -14 88
-20 110 -5 22 -10 60 -10 85 0 25 -6 79 -14 120 -19 102 -28 484 -17 705 9
168 15 225 43 415 6 41 15 98 19 125 11 79 76 348 100 420 6 17 14 44 19 60 5
17 13 44 19 60 5 17 19 60 30 96 11 36 31 92 45 124 14 31 26 61 26 66 0 17
169 367 233 484 65 118 198 328 265 417 23 31 42 60 42 64 0 4 15 23 33 44 17
20 70 83 117 140 146 177 234 269 369 390 47 41 92 82 101 90 53 50 155 135
220 183 41 32 80 61 85 65 25 20 218 148 243 161 15 8 29 17 32 21 10 13 100
63 265 150 50 26 99 52 110 57 52 28 216 103 224 103 9 0 145 56 176 73 11 6
36 14 55 18 19 4 60 17 90 29 30 12 71 26 90 30 63 15 124 31 175 45 134 37
176 46 355 75 35 6 69 15 75 20 5 4 42 11 80 14 39 3 111 10 160 14 126 12
267 13 284 3z m461 -1 c36 -6 110 -15 165 -20 55 -5 123 -13 150 -19 28 -5 95
-17 150 -26 55 -9 123 -23 150 -30 28 -8 75 -21 105 -29 30 -8 84 -23 120 -32
36 -9 97 -28 135 -41 39 -14 86 -29 106 -34 39 -9 147 -52 191 -75 14 -8 34
-14 43 -14 15 0 48 -14 95 -41 8 -5 26 -14 39 -19 44 -19 266 -132 296 -151
17 -10 50 -29 75 -41 25 -13 72 -42 105 -63 33 -22 68 -44 77 -50 122 -73 374
-264 465 -352 19 -18 37 -33 41 -33 5 0 75 -66 158 -148 130 -128 188 -191
318 -343 16 -19 62 -79 103 -134 40 -55 85 -115 100 -133 16 -19 30 -38 32
-44 2 -6 23 -39 47 -74 24 -35 44 -67 44 -70 0 -2 17 -31 38 -64 20 -32 49
-80 64 -107 16 -26 32 -55 37 -63 5 -8 26 -50 46 -93 21 -43 42 -80 47 -83 4
-3 8 -12 8 -20 0 -7 20 -57 45 -110 25 -52 45 -99 45 -105 0 -5 13 -37 28 -71
37 -82 52 -124 62 -170 4 -21 12 -43 17 -50 10 -14 33 -88 58 -188 9 -36 21
-78 27 -95 5 -16 14 -51 18 -77 5 -26 13 -56 19 -67 6 -11 11 -32 11 -47 0
-15 7 -68 15 -118 55 -323 70 -477 69 -756 0 -220 -14 -426 -40 -585 -8 -49
-21 -133 -30 -185 -8 -52 -20 -115 -26 -140 -6 -25 -14 -63 -17 -85 -4 -23
-11 -47 -16 -55 -5 -8 -12 -32 -16 -55 -4 -22 -11 -53 -17 -70 -5 -16 -17 -55
-26 -85 -10 -30 -23 -71 -30 -90 -7 -19 -22 -62 -32 -95 -10 -33 -21 -67 -26
-75 -18 -37 -48 -110 -48 -119 0 -14 -133 -297 -169 -361 -5 -8 -17 -32 -27
-53 -11 -21 -22 -41 -27 -44 -13 -8 -61 51 -92 113 -16 32 -46 87 -67 122 -21
34 -38 66 -38 70 0 5 -11 24 -25 43 -14 19 -37 57 -51 84 -13 28 -33 64 -44
80 -11 17 -24 40 -29 52 -6 12 -21 39 -34 60 -13 21 -39 65 -57 98 -18 33 -43
78 -56 100 -13 22 -27 47 -30 55 -4 8 -22 38 -39 65 -29 45 -45 74 -123 215
-13 25 -30 52 -36 60 -6 8 -21 33 -33 55 -11 22 -30 56 -42 75 -11 19 -24 42
-28 50 -4 8 -32 58 -63 110 -31 52 -59 102 -63 110 -4 8 -23 42 -42 75 -19 33
-40 69 -45 80 -6 11 -19 34 -29 50 -11 17 -30 50 -42 75 -12 25 -28 52 -35 60
-7 8 -27 44 -46 80 -18 36 -46 84 -61 107 -15 24 -27 45 -27 48 0 3 -12 24
-27 48 -15 23 -37 60 -48 82 -11 22 -31 58 -45 80 -43 67 -50 79 -61 105 -5
13 -13 27 -17 30 -8 6 -19 25 -58 101 -15 30 -35 65 -44 79 -9 14 -34 57 -55
95 -20 39 -44 77 -51 86 -8 8 -14 19 -14 24 0 4 -20 41 -45 82 -25 40 -45 77
-45 80 0 3 -20 39 -45 79 -25 39 -45 75 -45 79 0 4 -18 37 -40 72 -23 35 -45
74 -51 86 -5 12 -18 36 -28 52 -11 17 -31 50 -44 75 -14 25 -34 61 -46 80 -11
19 -24 42 -27 50 -4 8 -27 47 -50 86 -24 39 -44 73 -44 77 0 3 -13 26 -30 50
-16 25 -30 47 -30 50 0 3 -27 51 -60 107 -33 56 -60 103 -60 106 0 3 -77 138
-100 174 -5 8 -20 35 -33 60 -14 25 -34 61 -46 80 -12 19 -33 58 -47 85 -30
58 -40 75 -77 132 -15 24 -27 45 -27 47 0 2 -19 37 -43 78 -24 40 -46 80 -50
88 -4 8 -16 29 -26 45 -11 17 -30 50 -42 75 -12 25 -35 64 -51 87 -15 23 -28
44 -28 47 0 4 -20 40 -45 80 -25 41 -45 77 -45 80 0 3 -13 25 -30 49 -16 25
-30 49 -30 55 0 5 -7 15 -15 22 -8 7 -15 19 -15 27 0 8 -11 29 -24 46 -14 18
-29 43 -35 57 -6 14 -16 34 -23 45 -32 52 -69 115 -98 170 -18 33 -43 78 -56
100 -13 22 -27 47 -30 55 -4 8 -17 29 -29 45 -12 17 -31 51 -43 77 -11 26 -34
67 -50 90 -16 24 -31 51 -35 60 -3 10 -22 43 -42 73 -41 65 -67 124 -59 136 7
12 163 11 244 -1z m-318 -236 c39 -66 48 -81 73 -129 14 -27 34 -63 44 -80 17
-27 55 -93 117 -200 13 -22 30 -53 38 -70 8 -16 29 -52 45 -80 17 -27 34 -57
38 -65 3 -8 19 -34 35 -57 15 -23 28 -45 28 -49 0 -3 20 -40 45 -81 25 -40 45
-77 45 -82 0 -4 14 -27 30 -49 17 -23 30 -46 30 -51 0 -5 7 -14 15 -21 8 -7
15 -18 15 -26 0 -7 33 -68 73 -136 41 -68 77 -130 80 -138 4 -8 18 -33 30 -55
13 -22 35 -60 48 -85 94 -167 124 -218 140 -242 11 -15 19 -29 19 -32 0 -3 19
-38 43 -78 24 -40 46 -80 50 -88 4 -8 11 -22 17 -30 13 -20 94 -161 103 -180
4 -8 13 -24 20 -35 7 -11 30 -52 52 -90 22 -39 45 -79 52 -90 7 -11 17 -29 23
-40 6 -11 19 -33 30 -50 20 -31 80 -151 80 -160 0 -18 -39 11 -115 84 -27 26
-124 98 -237 176 -23 17 -72 45 -108 63 -36 19 -72 40 -81 48 -8 8 -22 14 -30
14 -8 0 -23 6 -34 13 -33 22 -164 73 -270 105 -177 54 -207 62 -242 62 -18 0
-67 7 -108 15 -90 19 -474 16 -595 -4 -150 -24 -351 -78 -440 -118 -19 -8 -48
-21 -65 -28 -123 -53 -269 -132 -342 -185 -26 -18 -73 -51 -103 -72 -30 -20
-81 -62 -114 -93 -86 -80 -96 -74 -45 28 17 34 37 69 45 78 8 8 14 19 14 22 0
4 18 37 41 73 22 37 45 77 50 88 5 12 18 35 28 51 11 17 31 50 44 75 14 25 34
61 46 80 11 19 25 45 30 57 6 12 28 51 51 86 22 35 40 68 40 72 0 4 18 37 40
72 23 35 45 74 51 86 5 12 18 36 29 52 10 17 29 50 42 75 13 25 35 63 50 84
16 21 28 43 28 48 0 4 19 41 43 81 23 39 53 92 66 117 14 25 34 58 45 75 12
16 30 48 41 70 11 22 32 59 48 82 15 24 27 45 27 47 0 2 20 39 45 80 25 42 45
79 45 81 0 3 12 24 27 48 15 23 42 71 61 107 18 36 39 72 46 80 7 8 23 35 35
60 12 25 31 59 41 75 11 17 32 52 47 79 16 27 33 56 38 65 6 9 25 43 43 76 18
33 41 74 52 90 11 17 23 37 26 45 22 48 39 49 66 4z m-16 -2649 c16 -8 47 -15
69 -15 48 0 72 -15 109 -68 22 -33 37 -43 76 -52 47 -11 49 -14 52 -48 2 -31
7 -38 28 -40 29 -4 100 -69 100 -92 0 -20 44 -53 91 -69 45 -15 89 -51 89 -73
0 -9 11 -30 25 -46 14 -17 25 -35 25 -42 0 -6 14 -25 31 -42 23 -23 29 -37 25
-54 -6 -24 4 -30 42 -25 8 1 33 -18 56 -43 47 -51 63 -57 68 -23 3 19 10 22
55 25 29 2 56 9 63 17 7 8 18 15 24 15 7 0 25 14 41 30 16 17 36 30 45 30 9 0
25 6 35 14 17 12 23 10 57 -16 30 -25 39 -40 44 -76 7 -47 38 -86 82 -103 14
-6 22 -17 22 -33 0 -38 10 -56 41 -72 38 -19 38 -52 -1 -89 -16 -16 -30 -38
-30 -50 0 -11 -5 -26 -12 -33 -8 -8 -5 -14 14 -21 15 -5 28 -20 32 -35 5 -21
13 -26 35 -26 34 0 61 -23 61 -50 0 -29 -42 -71 -91 -90 -49 -20 -64 -51 -31
-69 22 -12 35 -61 24 -90 -4 -11 -24 -37 -44 -60 -34 -35 -47 -61 -33 -61 2 0
27 9 56 20 28 11 60 18 71 14 18 -5 19 -12 13 -52 -4 -26 -11 -55 -16 -65 -14
-25 -1 -40 31 -34 15 3 32 1 39 -6 18 -18 13 -66 -9 -84 -11 -10 -20 -25 -20
-33 0 -16 -40 -51 -72 -63 -10 -3 -18 -10 -18 -15 0 -5 -13 -12 -30 -15 -23
-5 -30 -12 -30 -31 0 -31 -56 -80 -79 -70 -9 4 -32 9 -51 12 -19 2 -41 9 -49
16 -14 11 -104 18 -218 16 -69 -1 -110 17 -115 53 -4 27 -33 34 -147 36 -99 1
-131 20 -131 77 0 41 -25 100 -45 108 -9 3 -31 6 -49 6 -18 0 -37 5 -44 12 -9
9 -15 9 -24 0 -7 -7 -23 -12 -37 -12 -13 0 -32 -7 -42 -16 -16 -14 -20 -14
-48 0 -37 19 -52 45 -41 67 12 22 -15 59 -44 59 -13 0 -29 7 -36 15 -7 8 -23
15 -35 15 -12 0 -28 7 -35 15 -7 8 -27 15 -46 15 -28 0 -33 -4 -36 -27 -3 -24
-8 -28 -38 -31 -40 -4 -80 -36 -80 -64 0 -24 24 -70 44 -87 9 -8 16 -21 16
-31 0 -10 9 -28 19 -41 17 -22 26 -24 90 -22 64 2 76 -1 114 -26 23 -16 53
-31 67 -32 17 -3 30 -15 39 -36 17 -38 33 -42 53 -11 16 25 48 19 48 -8 0 -10
7 -25 16 -35 12 -14 13 -22 4 -38 -6 -12 -17 -21 -25 -21 -8 0 -27 -11 -42
-25 l-28 -25 37 -35 c21 -19 47 -35 58 -35 12 0 33 -14 47 -31 l26 -31 13 24
c17 30 17 58 -1 82 -20 26 -19 36 4 36 23 0 32 -21 25 -59 -4 -19 0 -38 11
-55 15 -23 16 -31 5 -50 -14 -26 -6 -49 29 -80 24 -22 28 -64 6 -72 -8 -4 -15
-12 -15 -20 0 -10 13 -14 44 -14 30 0 46 -5 50 -15 7 -18 60 -21 54 -2 -3 6
-16 13 -31 15 -14 2 -32 14 -41 27 -14 22 -14 24 9 39 37 24 80 20 99 -9 9
-14 23 -25 31 -25 8 0 19 -16 25 -37 5 -21 19 -49 30 -63 27 -35 53 -18 60 42
6 50 29 92 60 108 21 11 22 10 35 -37 2 -6 14 -13 27 -15 19 -2 24 -10 26 -40
3 -33 0 -38 -23 -44 -34 -9 -26 -28 14 -34 26 -4 38 -14 56 -47 32 -61 44 -73
74 -73 15 0 32 -5 39 -12 6 -6 34 -12 62 -12 28 0 56 6 62 12 14 14 54 16 63
3 3 -6 -4 -15 -17 -22 -20 -11 -20 -13 -5 -24 23 -16 21 -32 -3 -40 -11 -3
-20 -10 -20 -14 0 -8 -49 -30 -111 -50 -19 -6 -76 -11 -125 -11 -101 -1 -177
-13 -182 -29 -6 -17 -103 -14 -122 4 -15 14 -18 14 -30 0 -10 -12 -43 -15
-186 -15 -106 0 -175 4 -179 10 -4 6 -23 11 -43 11 -93 1 -279 10 -299 14 -15
4 -23 13 -24 28 -1 21 -1 21 -8 -3 -7 -24 -11 -25 -82 -25 -40 0 -93 6 -117
14 -33 11 -48 12 -67 3 -14 -7 -48 -12 -74 -12 -44 0 -49 3 -55 25 l-6 25
-129 0 c-95 0 -136 4 -158 15 -17 9 -44 14 -60 13 -41 -3 -56 8 -43 33 9 16
22 19 73 19 120 1 184 32 172 83 -4 15 -13 31 -21 38 -15 13 -19 45 -5 53 9 6
45 -31 54 -55 3 -9 22 -24 44 -34 21 -10 55 -29 76 -42 37 -23 40 -23 57 -8
11 10 20 27 22 39 3 18 9 21 46 18 54 -3 80 11 84 45 2 20 16 35 58 60 61 37
94 38 142 3 16 -12 29 -16 33 -10 12 20 8 71 -7 87 -13 12 -13 20 -4 45 10 27
9 32 -19 54 -16 13 -42 24 -57 24 -15 0 -30 5 -33 11 -4 5 -18 14 -32 20 -29
11 -21 29 13 29 41 0 23 21 -47 58 -66 34 -139 96 -139 119 0 7 -19 24 -41 39
-23 14 -61 47 -85 74 l-44 47 -118 -2 c-159 -2 -161 0 -159 113 l2 87 -29 3
c-16 2 -40 10 -52 19 -26 17 -44 10 -44 -17 0 -10 -4 -22 -10 -25 -17 -10 -11
-50 10 -68 25 -21 26 -46 3 -63 -24 -18 -43 -17 -65 2 -16 16 -21 14 -74 -22
l-56 -39 -19 24 c-12 15 -17 31 -13 46 5 22 -19 85 -33 85 -18 0 -43 -36 -43
-62 l0 -28 -74 0 c-53 0 -77 -4 -86 -15 -7 -8 -21 -15 -32 -15 -17 0 -20 5
-16 38 10 77 -79 105 -144 44 l-28 -26 -25 24 c-23 22 -26 22 -43 7 -45 -41
-162 -13 -162 39 0 13 -4 24 -10 24 -5 0 -17 15 -26 33 -9 17 -30 47 -45 65
-34 38 -37 67 -9 84 13 9 20 24 20 44 0 39 16 46 67 29 52 -18 186 -22 191 -6
2 6 -8 23 -22 38 -20 19 -23 29 -16 43 8 15 3 24 -22 45 -31 26 -35 38 -55
153 -5 29 -3 32 20 32 13 0 30 -7 38 -16 12 -14 14 -14 26 1 7 10 22 23 34 29
31 16 40 48 23 81 -11 22 -12 35 -2 69 6 22 17 48 24 56 7 8 14 31 16 50 2 27
8 36 25 38 12 2 27 10 33 18 7 8 23 14 35 14 12 0 33 8 46 18 35 27 117 37
140 16 14 -13 16 -20 6 -34 -9 -15 -7 -22 14 -40 21 -18 33 -20 95 -16 62 5
74 3 89 -14 19 -21 50 -27 59 -12 10 16 -52 53 -78 46 -29 -7 -76 38 -76 73 0
28 25 53 54 53 32 0 36 7 21 43 -7 18 -10 38 -8 44 3 7 -5 26 -17 43 -21 30
-21 37 -1 70 5 8 12 23 15 33 3 9 20 26 39 37 18 11 54 49 81 85 l48 65 69 0
c40 0 81 6 97 14 15 8 38 16 51 17 20 3 26 -2 33 -27 9 -34 30 -48 59 -39 20
7 25 30 9 40 -21 13 -9 44 30 77 37 33 44 35 137 41 76 5 102 4 119 -8 20 -13
27 -13 58 0 40 17 43 25 21 59 -20 30 -7 46 75 90 73 39 96 42 136 21z m2051
-912 c4 -10 18 -34 31 -53 13 -19 28 -44 33 -55 5 -11 18 -33 29 -50 10 -16
30 -52 43 -80 13 -27 43 -80 65 -118 23 -37 42 -69 42 -72 0 -2 20 -38 45 -78
25 -41 45 -78 45 -81 0 -4 14 -27 30 -51 17 -24 30 -46 30 -49 0 -3 13 -27 29
-54 15 -26 41 -70 56 -98 43 -77 138 -242 157 -272 10 -15 24 -40 32 -57 19
-36 84 -152 146 -259 47 -80 56 -97 103 -181 15 -27 36 -63 47 -80 11 -16 24
-39 30 -50 6 -11 18 -33 28 -50 10 -16 38 -66 62 -110 24 -44 54 -96 67 -115
12 -19 23 -39 23 -43 0 -5 14 -29 30 -54 17 -24 30 -46 30 -48 0 -3 20 -39 45
-81 25 -41 45 -78 45 -80 0 -2 20 -38 45 -78 25 -41 45 -79 45 -84 0 -5 7 -15
16 -22 9 -8 14 -25 12 -44 l-3 -31 -1482 -3 c-1216 -2 -1483 0 -1483 11 0 11
95 48 195 76 17 5 70 27 118 50 49 22 90 41 93 41 2 0 23 12 47 27 57 37 77
49 112 67 83 43 247 177 380 311 99 99 291 340 323 405 7 14 26 48 42 75 16
28 32 57 36 65 6 17 18 43 63 143 17 37 31 75 31 85 0 9 12 49 25 87 77 216
100 470 77 829 -12 175 -20 233 -33 241 -12 8 -12 85 1 85 6 0 14 -8 17 -17z
m-4137 -67 c0 -13 -7 -51 -15 -84 -22 -86 -16 -644 8 -782 9 -52 21 -106 25
-120 5 -14 17 -52 27 -85 9 -33 23 -75 31 -93 8 -18 14 -37 14 -42 0 -5 19
-49 41 -97 23 -49 45 -97 50 -108 21 -46 73 -133 110 -182 21 -29 39 -56 39
-61 0 -5 10 -17 21 -28 12 -10 33 -37 47 -59 13 -22 41 -58 62 -80 21 -22 56
-60 77 -84 32 -38 164 -154 278 -245 57 -45 180 -126 193 -126 6 0 12 -4 12
-10 0 -5 11 -12 25 -16 13 -3 29 -12 36 -20 6 -8 17 -14 24 -14 7 0 55 -20
107 -45 51 -25 98 -45 104 -45 7 0 25 -7 40 -15 16 -8 43 -15 59 -15 44 0 63
-15 49 -37 -11 -17 -83 -18 -1444 -21 -1051 -1 -1436 1 -1446 9 -16 13 -19 55
-5 64 6 3 21 29 36 58 14 28 34 66 45 82 11 17 24 41 30 54 6 13 19 35 29 50
10 14 31 49 45 76 15 28 36 64 46 80 11 17 26 44 35 60 8 17 28 53 44 80 33
55 40 68 95 168 20 37 62 109 92 159 31 51 60 101 65 113 5 11 13 27 19 35 26
41 100 168 100 174 0 3 18 36 41 72 22 37 45 77 50 88 5 12 13 28 19 36 13 20
89 151 130 225 18 33 45 78 58 100 14 22 41 69 60 105 18 36 40 72 48 81 8 8
14 23 14 31 0 9 7 21 15 28 8 7 15 18 15 24 0 7 13 30 30 52 16 21 30 44 30
51 0 6 20 42 45 80 25 37 45 71 45 76 0 4 11 24 24 45 13 20 42 70 65 110 44
75 61 89 61 48z m-2237 -1625 c9 -27 17 -56 17 -65 0 -8 6 -30 14 -48 7 -18
21 -60 31 -93 9 -33 23 -72 31 -87 8 -14 14 -35 14 -45 0 -11 7 -28 15 -39 8
-10 15 -27 15 -36 0 -10 13 -46 28 -80 16 -35 37 -83 47 -108 38 -95 217 -444
240 -470 8 -9 15 -21 15 -27 0 -5 14 -29 30 -51 17 -23 30 -44 30 -46 0 -12
149 -224 179 -256 18 -19 43 -51 56 -70 12 -19 32 -44 44 -54 11 -11 21 -24
21 -31 0 -6 32 -45 71 -86 39 -41 95 -103 124 -139 96 -119 407 -418 500 -480
30 -20 151 -111 191 -144 18 -14 35 -26 39 -26 3 0 32 -19 63 -42 64 -48 57
-43 202 -131 95 -57 192 -110 260 -143 14 -6 68 -32 120 -57 144 -69 229 -107
240 -107 5 0 26 -7 47 -16 91 -40 147 -60 198 -73 17 -4 40 -13 52 -19 12 -7
33 -12 47 -12 14 0 27 -4 30 -9 4 -5 25 -12 49 -16 23 -4 47 -11 52 -15 6 -4
23 -10 38 -14 16 -4 27 -12 24 -19 -3 -9 -359 -12 -1608 -12 l-1604 0 -3 1595
c-1 877 0 1601 3 1608 9 23 20 12 38 -37z m8655 -1583 l-3 -1583 -1599 -3
c-907 -1 -1604 2 -1609 7 -12 12 54 51 87 51 26 0 191 49 251 74 17 7 55 21
85 30 30 10 70 24 88 32 64 28 98 42 147 62 84 35 185 83 191 93 3 5 15 9 27
9 12 0 42 14 67 30 25 16 48 30 53 30 4 0 40 20 80 43 39 24 79 47 87 51 22
10 48 26 128 81 40 28 81 55 90 60 49 30 108 70 117 80 6 7 26 23 46 36 47 31
209 162 279 225 206 186 551 559 606 656 7 11 30 39 53 63 22 24 41 46 41 49
0 3 20 33 44 68 24 35 54 82 67 104 13 23 47 79 75 125 85 139 234 421 234
443 0 6 13 38 29 71 27 57 39 86 77 188 9 23 20 50 25 59 4 9 17 43 27 75 49
149 63 205 58 220 -7 17 21 51 42 52 10 1 12 -318 10 -1581z m-685 509 c-1
-15 -16 -45 -32 -66 -17 -22 -31 -42 -31 -45 0 -9 -120 -177 -148 -208 -13
-15 -30 -35 -36 -46 -21 -36 -111 -146 -197 -242 -247 -272 -618 -596 -699
-609 -48 -8 -482 5 -548 16 -29 5 -58 15 -64 21 -7 7 -22 12 -34 12 -12 0 -35
6 -51 14 -15 8 -48 22 -73 31 -25 10 -57 23 -72 31 -14 8 -40 14 -56 14 -17 0
-34 5 -37 10 -3 5 -24 10 -46 10 -33 0 -42 5 -57 30 -10 16 -30 38 -44 50 -15
11 -41 38 -58 59 l-31 40 31 47 c39 62 38 87 -3 118 -28 21 -45 26 -95 26 -66
0 -89 -14 -48 -30 23 -8 26 -15 26 -54 0 -24 -8 -58 -17 -75 l-18 -31 73 -71
c39 -40 72 -77 72 -84 0 -20 -25 -25 -115 -25 -63 0 -86 -4 -96 -16 -11 -14
-9 -19 11 -35 78 -61 153 -64 253 -12 25 13 30 13 46 -1 10 -9 34 -16 53 -16
20 0 41 -7 48 -15 7 -8 23 -15 36 -15 12 0 25 -4 28 -9 8 -12 122 -67 171 -81
22 -7 44 -16 50 -21 5 -5 19 -9 31 -9 12 0 27 -6 33 -14 18 -21 66 -29 181
-29 122 0 195 10 211 29 6 8 19 14 28 14 9 0 26 7 37 15 12 8 40 18 62 23 33
8 42 7 46 -5 7 -18 -1 -33 -17 -33 -7 0 -53 -27 -102 -60 -50 -33 -94 -60 -98
-60 -5 0 -27 -13 -50 -29 -23 -15 -52 -31 -64 -35 -13 -4 -23 -12 -23 -17 0
-5 -9 -9 -19 -9 -11 0 -23 -5 -26 -11 -4 -6 -32 -23 -63 -39 -231 -116 -370
-180 -405 -187 -30 -5 -48 -13 -116 -48 -16 -8 -40 -15 -53 -15 -12 -1 -34 -7
-48 -15 -14 -8 -35 -14 -47 -15 -12 0 -37 -6 -55 -14 -58 -24 -101 -37 -188
-58 -47 -11 -107 -26 -135 -33 -90 -25 -189 -45 -220 -45 -16 -1 -57 -7 -90
-15 -33 -8 -80 -15 -105 -15 -25 0 -83 -7 -130 -16 -103 -18 -709 -22 -805 -5
-33 6 -107 15 -165 21 -141 14 -302 43 -420 75 -59 17 -143 34 -205 44 -27 4
-59 12 -70 18 -70 37 -85 43 -102 43 -20 0 -91 23 -138 44 -72 33 -107 46
-120 46 -8 0 -52 17 -97 39 -46 21 -108 49 -138 61 -30 13 -62 28 -70 35 -8 6
-50 29 -93 50 -128 65 -170 88 -227 126 -30 20 -83 53 -118 75 -103 64 -339
240 -452 338 -190 165 -456 440 -570 590 -178 233 -300 412 -300 439 0 16 232
17 3663 15 l3662 -3 -2 -28z"/>
<path d="M1775 7062 c-20 -3 -21 -8 -17 -157 l4 -155 -28 -10 c-15 -6 -55 -10
-88 -8 l-61 3 -3 65 c-3 54 -7 70 -29 93 -22 22 -36 27 -73 27 l-46 0 1 -127
c2 -137 9 -163 52 -182 34 -16 54 -14 98 9 28 14 59 21 100 20 76 0 121 8 136
26 8 10 39 14 119 14 94 0 109 -2 125 -20 19 -21 69 -27 93 -11 24 15 45 66
52 126 4 33 13 74 21 92 12 30 11 34 -10 56 -16 18 -33 25 -61 25 -21 0 -50 8
-64 17 -24 16 -26 16 -33 0 -3 -10 0 -32 7 -49 7 -17 15 -54 17 -83 5 -49 3
-52 -26 -67 -17 -9 -55 -16 -89 -16 -79 0 -92 15 -92 103 0 55 4 70 25 95 37
44 33 77 -11 98 -34 16 -77 22 -119 16z"/>
<path d="M2170 6573 c-25 -9 -60 -22 -78 -29 -18 -8 -61 -14 -95 -14 -34 -1
-93 -5 -132 -11 -67 -10 -151 -21 -260 -34 -27 -3 -111 -9 -185 -13 l-135 -7
-3 -25 c-4 -39 56 -90 105 -90 21 0 47 7 57 15 11 8 39 15 63 15 43 0 43 0 43
-36 0 -22 -9 -48 -24 -67 -13 -18 -31 -49 -41 -70 -32 -70 -141 -168 -237
-216 -48 -24 -85 -48 -82 -52 8 -14 90 -10 121 5 15 8 35 18 43 21 8 3 29 14
45 25 17 11 39 24 50 29 11 5 41 27 66 50 43 38 47 39 62 23 9 -11 17 -49 22
-107 4 -49 13 -100 21 -112 8 -12 14 -29 14 -38 0 -24 43 -40 69 -26 11 7 21
16 21 21 0 5 7 16 16 24 13 13 47 16 207 17 106 1 205 4 221 8 45 10 53 31 28
82 l-22 45 21 42 c12 23 39 58 61 76 l39 34 -43 34 c-79 63 -92 68 -173 68
-50 0 -96 -7 -136 -20 -47 -16 -81 -20 -152 -18 l-92 3 -3 28 c-2 19 6 39 27
66 20 25 31 50 31 70 0 24 6 34 23 39 12 5 124 9 248 11 192 1 228 -1 239 -14
15 -18 120 -21 138 -3 23 23 14 82 -15 110 -62 58 -111 68 -193 41z m-150
-424 c37 -20 40 -24 40 -64 0 -57 -56 -125 -104 -125 -17 -1 -42 -7 -56 -15
-15 -9 -54 -14 -99 -15 -101 0 -111 10 -111 106 0 63 3 76 26 103 l26 31 119
0 c101 0 124 -3 159 -21z"/>
<path d="M7507 6950 c-34 -30 -36 -30 -155 -30 -94 0 -122 3 -132 15 -7 8 -16
12 -21 9 -15 -9 -11 -74 5 -80 9 -3 16 -30 20 -74 4 -38 11 -72 17 -75 5 -4 9
-44 9 -90 l0 -85 35 -14 c33 -14 37 -13 77 9 54 31 160 35 196 7 l22 -17 -2
-339 c-3 -308 -5 -340 -20 -350 -13 -8 -25 -6 -48 8 -25 14 -34 15 -45 6 -22
-19 -19 -25 38 -85 45 -46 60 -55 88 -55 44 0 79 24 79 55 0 13 7 30 15 39 13
13 15 89 15 564 l0 550 -35 31 c-50 43 -110 44 -158 1z m43 -85 l30 -16 0 -99
c0 -124 -6 -130 -127 -130 -73 0 -84 2 -94 21 -9 17 -7 25 11 44 13 13 37 27
54 30 42 9 96 34 96 45 0 25 -34 40 -87 38 -44 -2 -58 1 -69 17 -20 28 1 45
67 55 81 11 88 11 119 -5z"/>
<path d="M6622 6888 c-9 -9 -12 -119 -12 -434 0 -271 -4 -425 -10 -429 -6 -3
-10 -48 -10 -99 0 -84 2 -95 23 -114 26 -25 54 -28 80 -8 16 12 17 40 17 338
0 300 1 326 18 341 14 13 44 17 142 19 119 3 125 4 136 26 6 13 17 29 23 35 6
6 11 30 11 52 0 23 7 56 15 73 35 70 28 172 -12 172 -9 0 -25 8 -36 18 -27 24
-182 23 -218 -1 -28 -21 -95 -22 -106 -3 -12 20 -47 28 -61 14z m286 -90 c7
-7 12 -39 12 -74 0 -67 -24 -125 -60 -144 -31 -17 -105 -12 -123 8 -14 16 -14
19 1 39 13 16 30 23 67 25 47 3 50 5 53 31 5 41 -15 60 -56 54 -42 -7 -62 0
-62 23 0 25 16 33 75 41 78 10 80 10 93 -3z"/>
<path d="M7125 6398 c-22 -5 -77 -12 -122 -15 l-83 -5 0 -176 c0 -158 2 -180
21 -219 l21 -43 47 34 c42 31 54 35 124 37 72 3 78 1 105 -24 20 -19 39 -27
63 -27 59 0 69 36 69 240 l0 168 -34 21 c-37 23 -135 27 -211 9z m102 -70 c21
-19 23 -30 23 -114 0 -83 -2 -95 -22 -114 -13 -12 -35 -20 -56 -20 -18 0 -41
-4 -50 -9 -28 -15 -82 -1 -99 26 -15 23 -15 25 17 58 30 31 40 35 86 35 29 0
56 5 60 11 13 22 -18 34 -88 34 -56 0 -73 4 -81 17 -9 13 -7 22 8 38 54 59
159 79 202 38z"/>
<path d="M3007 4873 c-4 -3 -7 -15 -7 -25 0 -13 8 -18 29 -18 27 0 28 1 18 25
-12 24 -27 31 -40 18z"/>
<path d="M4033 2154 c-3 -8 -1 -26 6 -40 26 -58 1 -105 -117 -226 -99 -100
-111 -128 -55 -128 26 0 131 48 195 88 117 74 117 74 182 68 143 -14 268 -9
336 14 93 32 171 70 177 88 4 9 -5 26 -25 44 -46 40 -125 40 -202 -2 -30 -16
-70 -29 -87 -30 -18 0 -50 -7 -72 -16 -21 -8 -58 -14 -82 -12 -41 3 -44 5 -59
45 -21 56 -53 89 -108 107 -58 20 -81 20 -89 0z"/>
<path d="M6500 2129 c0 -12 7 -30 16 -40 14 -15 13 -20 -13 -50 -16 -19 -41
-53 -55 -76 -39 -60 -125 -99 -243 -108 -50 -4 -100 -13 -112 -21 -12 -8 -33
-14 -47 -14 -14 0 -31 -9 -40 -22 -15 -21 -14 -24 12 -45 32 -27 96 -30 157
-8 46 17 74 18 94 6 12 -8 13 -16 3 -48 -6 -21 -14 -48 -17 -60 -5 -17 -16
-23 -53 -29 -56 -8 -65 -19 -46 -55 10 -21 14 -68 14 -184 0 -156 0 -156 26
-180 28 -26 58 -32 69 -15 10 16 241 13 257 -4 21 -21 75 -46 98 -46 29 0 44
44 32 95 -16 67 -15 359 2 398 15 38 7 57 -41 89 -39 25 -77 22 -150 -12 -62
-30 -133 -40 -133 -20 0 6 12 22 28 35 22 19 27 32 27 67 l0 43 185 1 c228 2
210 0 210 22 0 39 -98 94 -126 71 -15 -13 -126 -8 -131 6 -2 6 26 30 62 54 54
37 66 50 71 79 5 24 2 45 -7 61 -13 23 -22 26 -82 29 -63 3 -67 2 -67 -19z m5
-519 c17 -19 19 -36 16 -158 -3 -150 -11 -172 -61 -172 -14 0 -35 -7 -46 -15
-27 -20 -113 -19 -136 2 -46 42 -9 73 87 73 81 0 105 13 105 56 0 37 -24 39
-86 8 -68 -34 -89 -27 -89 32 0 43 14 51 89 53 40 1 76 23 76 48 0 15 -46 18
-55 3 -3 -5 -31 -10 -61 -10 -53 0 -54 1 -54 28 0 41 17 52 81 52 32 0 61 5
64 10 11 17 51 11 70 -10z"/>
<path d="M2548 2070 c-37 -20 -40 -26 -63 -122 -9 -35 -67 -150 -94 -185 -12
-15 -52 -68 -89 -118 -100 -136 -157 -202 -249 -290 -46 -44 -83 -88 -83 -97
0 -45 117 -53 181 -12 46 29 176 154 203 197 22 32 39 34 73 7 44 -34 176 -21
265 26 14 8 33 14 40 14 22 0 48 33 48 62 0 14 -9 33 -20 43 -22 20 -64 17
-160 -10 -61 -17 -136 -20 -145 -5 -9 15 148 230 169 230 12 0 172 -173 227
-245 55 -72 154 -177 198 -209 49 -36 49 -36 155 -36 98 0 106 1 106 19 0 25
-143 153 -200 178 -61 27 -216 168 -359 327 l-44 48 6 67 6 66 -39 33 c-45 37
-78 40 -132 12z"/>
<path d="M6131 2066 c-12 -22 -9 -28 54 -92 66 -66 68 -67 94 -53 14 8 27 24
29 34 4 31 -32 80 -71 99 -20 9 -39 21 -42 26 -12 19 -51 10 -64 -14z"/>
<path d="M5757 1954 c-32 -17 -31 -37 1 -42 13 -2 22 -11 22 -20 0 -10 7 -28
16 -40 13 -19 24 -22 57 -20 42 3 42 3 45 45 3 38 0 44 -35 67 -43 30 -66 32
-106 10z"/>
<path d="M4465 1834 c-53 -19 -236 -64 -305 -75 -171 -29 -185 -33 -185 -57 0
-19 10 -27 55 -43 64 -22 119 -24 175 -5 22 7 76 22 120 31 44 10 89 24 100
30 11 7 38 15 60 18 22 3 58 10 80 15 22 6 61 14 87 17 52 7 68 28 48 65 -10
18 -20 20 -103 19 -52 0 -109 -7 -132 -15z"/>
<path d="M4635 1684 c-11 -8 -45 -22 -75 -31 -30 -8 -59 -19 -65 -23 -10 -8
-89 -35 -195 -66 -30 -9 -73 -22 -95 -30 -23 -8 -51 -14 -64 -14 -14 0 -47 -7
-75 -15 -28 -8 -72 -17 -97 -20 -27 -3 -54 -14 -63 -24 -16 -18 -15 -20 21
-42 49 -31 169 -35 200 -6 26 23 70 22 83 -2 14 -28 13 -136 -2 -149 -7 -5
-24 -13 -38 -17 -14 -4 -41 -18 -60 -31 -24 -17 -49 -24 -82 -24 -58 0 -61
-13 -15 -58 37 -36 95 -44 117 -17 16 19 60 20 60 1 0 -18 -38 -46 -62 -46
-28 0 -21 -20 18 -53 19 -17 41 -45 49 -63 7 -18 26 -40 40 -50 27 -17 28 -17
44 3 13 16 18 46 20 144 1 68 4 126 6 130 3 3 36 9 75 13 73 7 92 21 82 58 -6
23 -41 32 -87 24 -20 -4 -44 -2 -56 4 -34 19 -5 40 55 40 56 0 76 12 76 46 0
25 -42 74 -64 74 -8 0 -26 -14 -39 -31 -21 -27 -27 -30 -46 -19 -18 9 -22 19
-19 53 3 42 3 42 48 48 25 4 72 16 105 29 33 12 78 24 99 27 37 5 39 4 31 -18
-5 -13 -10 -92 -12 -175 -3 -127 -1 -153 12 -164 8 -7 15 -19 15 -26 0 -50
146 -227 208 -253 50 -21 311 -23 335 -2 28 23 19 52 -35 111 -29 32 -71 78
-93 104 -37 44 -41 46 -60 32 -16 -11 -21 -30 -25 -83 l-5 -68 -37 1 c-53 2
-108 42 -157 114 l-41 62 0 129 c0 89 4 138 14 161 8 18 22 50 31 71 9 20 22
37 29 37 18 0 46 33 46 54 0 10 -10 29 -22 42 -27 28 -101 33 -133 8z"/>
<path d="M2728 1360 c-15 -4 -67 -11 -115 -15 -49 -4 -98 -13 -110 -21 -12 -8
-33 -14 -46 -14 -14 0 -30 -7 -37 -15 -7 -8 -28 -15 -47 -15 -35 0 -93 -24
-93 -39 0 -4 9 -16 21 -27 26 -24 44 -66 53 -127 9 -61 43 -101 99 -117 40
-11 48 -10 88 12 35 18 64 24 149 28 l105 5 41 72 c22 39 52 87 67 106 51 67
47 112 -11 152 -39 26 -107 32 -164 15z m11 -94 c18 -21 2 -95 -28 -128 -22
-24 -38 -30 -104 -39 -96 -13 -107 -6 -107 62 0 45 3 51 33 69 17 11 44 20 58
20 15 0 32 7 39 15 16 19 93 20 109 1z"/>
<path d="M4045 1343 c-11 -3 -24 -8 -28 -13 -10 -9 62 -82 77 -77 5 2 19 16
30 30 16 22 18 32 10 45 -11 17 -52 24 -89 15z"/>
<path d="M4382 1138 c-7 -7 -12 -25 -12 -40 0 -15 -4 -28 -10 -28 -28 0 18
-59 46 -60 6 0 17 -7 24 -15 27 -32 90 -7 90 35 0 27 -41 85 -73 104 -34 19
-49 20 -65 4z"/>
<path d="M3973 1040 c-34 -14 -28 -44 14 -79 41 -34 57 -29 68 20 5 22 2 36
-11 50 -19 21 -36 23 -71 9z"/>
</g>
</svg>
